<svg width="27" height="27" viewBox="0 0 27 27" fill="none" xmlns="http://www.w3.org/2000/svg">
<path d="M1.31038 1.41414C2.37201 0.352514 4.09325 0.352514 5.15487 1.41414L25.9604 22.2196C27.022 23.2813 27.022 25.0025 25.9604 26.0641C24.8987 27.1257 23.1775 27.1257 22.1159 26.0641L1.31038 5.25863C0.248753 4.19701 0.248753 2.47577 1.31038 1.41414Z" fill="black"/>
<path d="M1.31038 26.0641C0.248753 25.0025 0.248753 23.2813 1.31038 22.2196L22.1159 1.41414C23.1775 0.352513 24.8987 0.352513 25.9604 1.41414C27.022 2.47577 27.022 4.19701 25.9604 5.25863L5.15487 26.0641C4.09325 27.1257 2.37201 27.1257 1.31038 26.0641Z" fill="black"/>
</svg>
