<svg width="242" height="182" viewBox="0 0 242 182" fill="none" xmlns="http://www.w3.org/2000/svg">
<path d="M223.463 57.9943C223.12 58.2871 222.746 58.5425 222.349 58.7563C221.773 59.0614 221.058 58.8413 220.753 58.2648C220.448 57.6882 220.668 56.9735 221.244 56.6684C221.738 56.3961 222.172 56.0284 222.523 55.5866C222.919 55.0684 223.66 54.9696 224.178 55.3658C224.696 55.762 224.795 56.5032 224.399 57.0215C224.123 57.378 223.809 57.7041 223.463 57.9943Z" fill="black"/>
<path d="M200.938 13.24C195.145 6.3957 186.413 4.26195 181.435 8.47537C176.456 12.6888 177.117 21.6534 182.909 28.4978C187.551 33.9819 194.074 36.4305 199.047 35.0258L225.127 69.2412C226.506 70.8709 229.642 70.4837 232.131 68.3774C234.62 66.2711 235.52 63.242 234.141 61.6123L204.708 30.2349C206.915 25.5624 205.579 18.7242 200.938 13.24Z" fill="#AABECE"/>
<path d="M196.857 14.9972C196.359 15.4185 195.614 15.3565 195.192 14.8586C192.348 11.4973 187.746 10.3316 185.345 12.3632C184.847 12.7845 184.102 12.7225 183.681 12.2247C183.26 11.7269 183.322 10.9817 183.819 10.5604C187.239 7.66596 193.274 8.93577 196.995 13.3329C197.417 13.8307 197.355 14.5759 196.857 14.9972Z" fill="#7D8D9C"/>
<path d="M199.164 17.686C198.668 18.1098 197.922 18.0515 197.499 17.5558C197.075 17.0601 197.133 16.3146 197.629 15.8908L197.638 15.8832C198.136 15.4619 198.881 15.5239 199.302 16.0217C199.723 16.5195 199.661 17.2647 199.164 17.686Z" fill="#7D8D9C"/>
<path d="M47.6343 50.7108C48.1752 51.3111 48.6197 51.9722 48.9828 52.6708C49.417 52.0012 49.9345 51.3719 50.5549 50.8132C52.2712 49.2668 54.4876 48.4148 56.7957 48.4148C58.8245 48.4148 60.7831 49.0844 62.3842 50.2817C62.3468 49.8494 62.3281 49.4138 62.351 48.973C62.4502 47.0659 63.1184 45.2785 64.2567 43.7953C63.859 42.4108 63.1595 41.0909 62.1302 39.9487C58.5087 35.9304 52.3156 35.6085 48.2973 39.23C45.5166 41.7361 44.5093 45.4732 45.3505 48.8696C46.1965 49.3543 46.9694 49.9734 47.6343 50.7108Z" fill="#C57A44"/>
<path d="M65.2121 56.8169C65.7048 56.4197 66.2148 56.0262 66.757 55.6402C70.6406 52.8759 75.6265 50.5153 81.4185 48.6667C81.2524 46.5962 80.4397 44.5614 78.942 42.8994C75.3205 38.8811 69.1274 38.5592 65.1091 42.1807C61.0908 45.8022 60.7689 51.9953 64.3904 56.0136C64.6506 56.3022 64.9271 56.5661 65.2121 56.8169Z" fill="#6D3326"/>
<path d="M159.395 57.4231L159.724 57.7062L168.062 49.3678L158.661 39.9674C156.419 37.7247 152.782 37.7247 150.54 39.9674L141.989 48.5181C149.132 50.7458 155.153 53.7717 159.395 57.4231Z" fill="#017B4E"/>
<path d="M162.559 60.671H188.672L176.445 48.4449C174.203 46.2023 170.566 46.2023 168.324 48.4449L159.381 57.3878C160.605 58.4396 161.669 59.5363 162.559 60.671Z" fill="#80D261"/>
<path d="M34.4251 60.0798C37.065 60.0798 39.5907 61.2032 41.3561 63.1628C41.6649 63.5057 41.9442 63.8665 42.1945 64.2413C42.618 63.6021 43.1224 63.0079 43.71 62.4783C44.8957 61.4096 46.3223 60.6825 47.8509 60.3287C47.0649 57.593 47.5496 54.583 49.2766 52.2276C48.921 51.5838 48.4957 50.9671 47.9824 50.3972C44.3609 46.3789 38.1678 46.057 34.1496 49.6785C31.0329 52.4873 30.1509 56.8397 31.5967 60.5281C32.504 60.2389 33.4552 60.0798 34.4251 60.0798Z" fill="#6D3326"/>
<path d="M43.192 73.7668C44.9297 70.2716 44.4759 65.9253 41.7041 62.8494C38.0826 58.8311 31.8895 58.5092 27.8712 62.1307C24.53 65.142 23.7542 69.9281 25.6665 73.7668H43.192Z" fill="#883F2E"/>
<path d="M58.2495 67.4252C58.8451 63.3362 61.6357 59.3872 66.4086 55.8976C66.0844 54.1987 65.3175 52.5625 64.0753 51.1841C60.4538 47.1658 54.2607 46.8439 50.2424 50.4654C46.2241 54.0869 45.9022 60.2799 49.5237 64.2982C51.8071 66.8319 55.1118 67.8921 58.2495 67.4252Z" fill="#883F2E"/>
<path d="M58.7169 73.7668C58.7894 73.6208 58.8526 73.4715 58.9171 73.3227L58.8512 73.1402C58.3683 71.8006 58.1231 70.4367 58.1231 69.0869C58.1231 67.7791 58.3547 66.4816 58.7959 65.2029C58.3987 64.3672 57.8803 63.5723 57.229 62.8494C53.6075 58.8311 47.4144 58.5092 43.3961 62.1307C40.0549 65.142 39.2791 69.9281 41.1914 73.7668H58.7169Z" fill="#C57A44"/>
<path d="M146.832 73.7666V65.9462C146.832 63.0373 149.199 60.6712 152.107 60.6712H163.129C158.224 54.1974 147.827 48.9312 134.539 46.0916C134.971 46.7695 135.207 47.4737 135.207 48.1957C135.207 53.1072 124.55 57.256 111.935 57.256C99.3204 57.256 88.6631 53.1067 88.6631 48.1957C88.6631 47.4742 88.899 46.7695 89.3313 46.0916C70.6394 50.086 57.6553 58.8796 57.6553 69.0867C57.6553 70.686 57.9777 72.2497 58.5869 73.7666H146.832Z" fill="white"/>
<path d="M90.1029 51.9408C88.877 50.7912 88.1962 49.5255 88.1962 48.1958C88.1962 47.5211 88.3736 46.8632 88.7058 46.2283C70.3507 50.284 57.6567 58.9943 57.6567 69.0873C57.6567 70.6865 57.9791 72.2502 58.5883 73.7671H76.6434C76.0342 72.2502 75.7137 70.6865 75.7137 69.0873C75.7133 62.4694 81.1717 56.4471 90.1029 51.9408Z" fill="#EAF6FF"/>
<path d="M201.497 73.7669V65.9465C201.497 62.7747 198.926 60.2036 195.754 60.2036H152.108C148.936 60.2036 146.365 62.7747 146.365 65.9465V73.7669H201.497Z" fill="#FE9901"/>
<path d="M161.673 73.7669V65.9465C161.673 62.7747 164.244 60.2036 167.416 60.2036H152.108C148.936 60.2036 146.365 62.7747 146.365 65.9465V73.7669H161.673Z" fill="#FB8801"/>
<path d="M111.935 57.7237C125.046 57.7237 135.675 53.4577 135.675 48.1954C135.675 42.9332 125.046 38.6672 111.935 38.6672C98.8236 38.6672 88.1948 42.9332 88.1948 48.1954C88.1948 53.4577 98.8236 57.7237 111.935 57.7237Z" fill="#FEDF74"/>
<path d="M124.823 55.1529C111.711 55.1529 101.083 50.8871 101.083 45.6247C101.083 42.9357 103.862 40.5092 108.325 38.7766C96.9267 39.4747 88.1948 43.4256 88.1948 48.1953C88.1948 53.4577 98.8235 57.7235 111.935 57.7235C118.347 57.7235 124.161 56.7017 128.433 55.0434C127.256 55.1155 126.05 55.1529 124.823 55.1529Z" fill="#FAC600"/>
<path d="M207.562 86.0959V76.1218C207.562 74.5628 206.298 73.2994 204.74 73.2994H19.2716C17.7125 73.2994 16.4492 74.5632 16.4492 76.1218V86.0959H207.562Z" fill="#3E5690"/>
<path d="M194.727 109.222C194.908 111.73 196.623 113.806 198.995 114.389C201.749 115.065 204.264 116.427 206.346 118.274C207.141 114.19 207.561 109.977 207.561 105.67V99.2721H190.613C193.075 102.186 194.459 105.524 194.727 109.222Z" fill="#3E5690"/>
<path d="M59.9106 167.819H151.091L150.216 167.008C145.164 162.323 142.266 155.699 142.266 148.833V129.691C142.266 128.49 143.243 127.513 144.444 127.513H150.596L150.683 127.157C152.601 119.345 159.544 113.889 167.566 113.889C169.82 113.889 171.961 112.909 173.439 111.201C177.195 106.859 179.941 102.865 181.602 99.3306C181.611 99.3105 181.624 99.2927 181.634 99.2726H16.4492V105.67C16.4492 134.1 34.6138 158.494 59.9106 167.819Z" fill="#3E5690"/>
<path d="M58.6856 167.351H84.7179C60.0622 157.7 42.4815 133.64 42.4815 105.671V99.2732H16.4492V105.671C16.4492 133.639 34.0299 157.699 58.6856 167.351Z" fill="#2E3E70"/>
<path d="M42.481 86.0959V76.1218C42.481 74.5628 43.7448 73.2994 45.3033 73.2994H19.2716C17.7125 73.2994 16.4492 74.5632 16.4492 76.1218V86.0959H42.481Z" fill="#2E3E70"/>
<path d="M214.723 85.6279H9.29185C6.62859 85.6279 4.46973 87.7868 4.46973 90.4501V94.918C4.46973 97.5812 6.62859 99.7401 9.29185 99.7401H181.398C181.465 99.6044 181.54 99.4645 181.603 99.3302C182.411 97.6107 184.144 96.4995 186.02 96.4995C187.246 96.4995 188.409 96.9772 189.293 97.8451C189.916 98.4557 190.486 99.0879 191.003 99.7401H214.722C217.386 99.7401 219.545 97.5812 219.545 94.918V90.4501C219.546 87.7868 217.387 85.6279 214.723 85.6279Z" fill="#ACC7E4"/>
<path d="M26.5155 94.918V90.4501C26.5155 87.7868 28.6744 85.6279 31.3377 85.6279H9.29185C6.62859 85.6279 4.46973 87.7868 4.46973 90.4501V94.918C4.46973 97.5812 6.62859 99.7401 9.29185 99.7401H31.3377C28.6744 99.7406 26.5155 97.5817 26.5155 94.918Z" fill="#8FB0C5"/>
<path d="M212.326 127.513C210.883 120.857 205.7 115.553 199.109 113.935C196.909 113.395 195.359 111.449 195.196 109.189C194.818 103.945 192.286 100.125 189.621 97.5109C187.023 94.9628 182.726 95.8373 181.179 99.1313C179.218 103.306 175.963 107.569 173.086 110.895C171.698 112.498 169.687 113.421 167.567 113.421C159.037 113.421 151.857 119.484 150.118 127.513H212.326Z" fill="#FB2B3A"/>
<path d="M160.414 127.046C163.688 122.84 168.792 120.119 174.503 120.119C176.623 120.119 178.634 119.196 180.022 117.593C182.899 114.267 186.154 110.004 188.115 105.829C189.131 103.665 191.334 102.555 193.463 102.764C192.424 100.648 191.043 98.9064 189.621 97.5116C187.023 94.9634 182.726 95.8379 181.179 99.1319C179.218 103.306 175.963 107.57 173.086 110.895C171.698 112.499 169.687 113.421 167.567 113.421C159.203 113.421 152.139 119.251 150.226 127.046H160.414V127.046Z" fill="#E41F2D"/>
<path d="M150.406 167.819H212.036C217.31 163.188 220.642 156.402 220.642 148.833V129.691C220.642 128.23 219.458 127.045 217.996 127.045H144.445C142.984 127.045 141.799 128.23 141.799 129.691V148.833C141.8 156.403 145.133 163.189 150.406 167.819Z" fill="#EAF6FF"/>
<path d="M149.885 167.351H169.977C165.006 162.738 161.892 156.151 161.892 148.834V129.691C161.892 128.23 163.076 127.045 164.538 127.045H144.446C142.985 127.045 141.8 128.23 141.8 129.691V148.834C141.8 156.15 144.914 162.737 149.885 167.351Z" fill="#D8ECFE"/>
<path d="M223.368 181.67H2.50579C1.17416 181.67 0.0947266 180.591 0.0947266 179.259V169.762C0.0947266 168.431 1.17416 167.351 2.50579 167.351H223.369C224.7 167.351 225.78 168.431 225.78 169.762V179.259C225.78 180.591 224.7 181.67 223.368 181.67Z" fill="#D88A55"/>
<path d="M122.343 179.259V169.762C122.343 168.431 123.422 167.351 124.754 167.351H103.103C101.771 167.351 100.692 168.431 100.692 169.762V179.259C100.692 180.591 101.771 181.67 103.103 181.67H124.754C123.422 181.67 122.343 180.591 122.343 179.259Z" fill="#C57A44"/>
</svg>
